<svg xmlns="http://www.w3.org/2000/svg" xmlns:xlink="http://www.w3.org/1999/xlink" width="500" zoomAndPan="magnify" viewBox="0 0 375 374.999991" height="500" preserveAspectRatio="xMidYMid meet" version="1.0"><defs><g/></defs><g fill="#000000" fill-opacity="1"><g transform="translate(55.312859, 201.374987)"><g><path d="M 28.84375 -24.765625 C 28.070312 -24.722656 27.507812 -24.628906 27.15625 -24.484375 C 26.8125 -24.335938 26.578125 -24.0625 26.453125 -23.65625 C 26.335938 -23.25 26.28125 -22.585938 26.28125 -21.671875 L 26.28125 -3.8125 C 26.28125 -2.90625 26.34375 -2.242188 26.46875 -1.828125 C 26.601562 -1.421875 26.835938 -1.144531 27.171875 -1 C 27.515625 -0.863281 28.070312 -0.769531 28.84375 -0.71875 L 28.84375 0 C 27.539062 -0.0703125 25.519531 -0.109375 22.78125 -0.109375 C 20.019531 -0.109375 17.898438 -0.0703125 16.421875 0 L 16.421875 -0.71875 C 17.179688 -0.769531 17.734375 -0.863281 18.078125 -1 C 18.429688 -1.144531 18.664062 -1.421875 18.78125 -1.828125 C 18.90625 -2.242188 18.96875 -2.90625 18.96875 -3.8125 L 18.96875 -12.453125 L 10.875 -12.453125 L 10.875 -3.8125 C 10.875 -2.90625 10.9375 -2.242188 11.0625 -1.828125 C 11.195312 -1.421875 11.429688 -1.144531 11.765625 -1 C 12.109375 -0.863281 12.660156 -0.769531 13.421875 -0.71875 L 13.421875 0 C 12.035156 -0.0703125 10.035156 -0.109375 7.421875 -0.109375 C 4.515625 -0.109375 2.378906 -0.0703125 1.015625 0 L 1.015625 -0.71875 C 1.773438 -0.769531 2.328125 -0.863281 2.671875 -1 C 3.023438 -1.144531 3.257812 -1.421875 3.375 -1.828125 C 3.5 -2.242188 3.5625 -2.90625 3.5625 -3.8125 L 3.5625 -21.671875 C 3.5625 -22.585938 3.492188 -23.25 3.359375 -23.65625 C 3.234375 -24.0625 3 -24.335938 2.65625 -24.484375 C 2.320312 -24.628906 1.773438 -24.722656 1.015625 -24.765625 L 1.015625 -25.484375 C 2.378906 -25.410156 4.515625 -25.375 7.421875 -25.375 C 10.003906 -25.375 12.003906 -25.410156 13.421875 -25.484375 L 13.421875 -24.765625 C 12.660156 -24.722656 12.101562 -24.628906 11.75 -24.484375 C 11.40625 -24.335938 11.171875 -24.0625 11.046875 -23.65625 C 10.929688 -23.25 10.875 -22.585938 10.875 -21.671875 L 10.875 -13.171875 L 18.96875 -13.171875 L 18.96875 -21.671875 C 18.96875 -22.585938 18.898438 -23.25 18.765625 -23.65625 C 18.640625 -24.0625 18.40625 -24.335938 18.0625 -24.484375 C 17.726562 -24.628906 17.179688 -24.722656 16.421875 -24.765625 L 16.421875 -25.484375 C 17.898438 -25.410156 20.019531 -25.375 22.78125 -25.375 C 25.519531 -25.375 27.539062 -25.410156 28.84375 -25.484375 Z M 28.84375 -24.765625 "/></g></g></g><g fill="#000000" fill-opacity="1"><g transform="translate(85.15692, 201.374987)"><g><path d="M 10.375 -19.1875 C 13.320312 -19.1875 15.597656 -18.410156 17.203125 -16.859375 C 18.816406 -15.316406 19.625 -12.804688 19.625 -9.328125 C 19.625 -5.847656 18.816406 -3.335938 17.203125 -1.796875 C 15.597656 -0.265625 13.320312 0.5 10.375 0.5 C 7.414062 0.5 5.128906 -0.265625 3.515625 -1.796875 C 1.910156 -3.335938 1.109375 -5.847656 1.109375 -9.328125 C 1.109375 -12.804688 1.910156 -15.316406 3.515625 -16.859375 C 5.128906 -18.410156 7.414062 -19.1875 10.375 -19.1875 Z M 10.375 -18.46875 C 9.601562 -18.46875 8.988281 -17.710938 8.53125 -16.203125 C 8.070312 -14.691406 7.84375 -12.398438 7.84375 -9.328125 C 7.84375 -6.253906 8.070312 -3.96875 8.53125 -2.46875 C 8.988281 -0.96875 9.601562 -0.21875 10.375 -0.21875 C 11.132812 -0.21875 11.742188 -0.96875 12.203125 -2.46875 C 12.660156 -3.96875 12.890625 -6.253906 12.890625 -9.328125 C 12.890625 -12.398438 12.660156 -14.691406 12.203125 -16.203125 C 11.742188 -17.710938 11.132812 -18.46875 10.375 -18.46875 Z M 10.375 -18.46875 "/></g></g></g><g fill="#000000" fill-opacity="1"><g transform="translate(105.892961, 201.374987)"><g><path d="M 13.890625 -19.1875 C 15.066406 -19.1875 15.910156 -18.828125 16.421875 -18.109375 C 16.941406 -17.390625 17.203125 -16.535156 17.203125 -15.546875 C 17.203125 -14.472656 16.894531 -13.617188 16.28125 -12.984375 C 15.675781 -12.347656 14.878906 -12.03125 13.890625 -12.03125 C 12.859375 -12.03125 12.066406 -12.257812 11.515625 -12.71875 C 10.960938 -13.1875 10.6875 -13.816406 10.6875 -14.609375 C 10.6875 -16.023438 11.300781 -17.144531 12.53125 -17.96875 C 12.09375 -17.96875 11.707031 -17.882812 11.375 -17.71875 C 10.769531 -17.445312 10.265625 -17.015625 9.859375 -16.421875 C 9.453125 -15.835938 9.25 -15.203125 9.25 -14.515625 L 9.25 -3.703125 C 9.25 -2.578125 9.484375 -1.800781 9.953125 -1.375 C 10.421875 -0.957031 11.21875 -0.75 12.34375 -0.75 L 12.34375 0 C 12.03125 0 11.769531 -0.0078125 11.5625 -0.03125 C 9.039062 -0.101562 7.359375 -0.140625 6.515625 -0.140625 C 5.773438 -0.140625 4.109375 -0.101562 1.515625 -0.03125 C 1.316406 -0.0078125 1.0625 0 0.75 0 L 0.75 -0.75 C 1.5 -0.75 2.019531 -0.9375 2.3125 -1.3125 C 2.613281 -1.6875 2.765625 -2.363281 2.765625 -3.34375 L 2.765625 -14.765625 C 2.765625 -15.867188 2.613281 -16.671875 2.3125 -17.171875 C 2.019531 -17.671875 1.5 -17.921875 0.75 -17.921875 L 0.75 -18.6875 C 1.519531 -18.613281 2.265625 -18.578125 2.984375 -18.578125 C 5.484375 -18.578125 7.570312 -18.742188 9.25 -19.078125 L 9.25 -16.484375 C 10.164062 -18.285156 11.710938 -19.1875 13.890625 -19.1875 Z M 13.890625 -19.1875 "/></g></g></g><g fill="#000000" fill-opacity="1"><g transform="translate(123.208992, 201.374987)"><g><path d="M 5.4375 0.25 C 3.894531 0.25 2.734375 -0.160156 1.953125 -0.984375 C 1.179688 -1.816406 0.796875 -2.859375 0.796875 -4.109375 C 0.796875 -5.179688 1.078125 -6.070312 1.640625 -6.78125 C 2.203125 -7.488281 2.863281 -8.035156 3.625 -8.421875 C 4.394531 -8.804688 5.394531 -9.203125 6.625 -9.609375 C 7.914062 -10.046875 8.863281 -10.441406 9.46875 -10.796875 C 10.070312 -11.160156 10.375 -11.664062 10.375 -12.3125 L 10.375 -15.515625 C 10.375 -16.285156 10.179688 -16.96875 9.796875 -17.5625 C 9.410156 -18.164062 8.75 -18.46875 7.8125 -18.46875 C 7.070312 -18.46875 6.398438 -18.265625 5.796875 -17.859375 C 6.609375 -17.566406 7.210938 -17.140625 7.609375 -16.578125 C 8.003906 -16.015625 8.203125 -15.382812 8.203125 -14.6875 C 8.203125 -13.75 7.875 -13 7.21875 -12.4375 C 6.5625 -11.875 5.765625 -11.59375 4.828125 -11.59375 C 3.890625 -11.59375 3.148438 -11.882812 2.609375 -12.46875 C 2.066406 -13.0625 1.796875 -13.8125 1.796875 -14.71875 C 1.796875 -15.4375 1.972656 -16.0625 2.328125 -16.59375 C 2.691406 -17.125 3.257812 -17.601562 4.03125 -18.03125 C 5.375 -18.800781 7.296875 -19.1875 9.796875 -19.1875 C 11.109375 -19.1875 12.242188 -19.0625 13.203125 -18.8125 C 14.171875 -18.5625 14.988281 -18.085938 15.65625 -17.390625 C 16.132812 -16.878906 16.453125 -16.242188 16.609375 -15.484375 C 16.765625 -14.734375 16.84375 -13.6875 16.84375 -12.34375 L 16.84375 -2.703125 C 16.84375 -2.097656 16.882812 -1.6875 16.96875 -1.46875 C 17.050781 -1.257812 17.203125 -1.15625 17.421875 -1.15625 C 17.585938 -1.15625 17.765625 -1.207031 17.953125 -1.3125 C 18.148438 -1.414062 18.332031 -1.539062 18.5 -1.6875 L 18.859375 -1.078125 C 17.828125 -0.191406 16.351562 0.25 14.4375 0.25 C 13 0.25 11.988281 0.00390625 11.40625 -0.484375 C 10.832031 -0.972656 10.519531 -1.640625 10.46875 -2.484375 C 9.34375 -0.660156 7.664062 0.25 5.4375 0.25 Z M 9.03125 -2.625 C 9.539062 -2.625 9.988281 -2.828125 10.375 -3.234375 L 10.375 -10.84375 C 10.15625 -10.476562 9.757812 -10.007812 9.1875 -9.4375 C 8.53125 -8.8125 8.035156 -8.203125 7.703125 -7.609375 C 7.367188 -7.023438 7.203125 -6.226562 7.203125 -5.21875 C 7.203125 -3.488281 7.8125 -2.625 9.03125 -2.625 Z M 9.03125 -2.625 "/></g></g></g><g fill="#000000" fill-opacity="1"><g transform="translate(142.32503, 201.374987)"><g><path d="M 10.328125 -19.1875 C 11.316406 -19.1875 12.222656 -19.082031 13.046875 -18.875 C 13.878906 -18.675781 14.554688 -18.421875 15.078125 -18.109375 C 15.753906 -17.722656 16.285156 -17.207031 16.671875 -16.5625 C 17.054688 -15.914062 17.25 -15.179688 17.25 -14.359375 C 17.25 -13.359375 16.921875 -12.523438 16.265625 -11.859375 C 15.617188 -11.203125 14.789062 -10.875 13.78125 -10.875 C 12.75 -10.875 11.9375 -11.164062 11.34375 -11.75 C 10.757812 -12.34375 10.46875 -13.128906 10.46875 -14.109375 C 10.46875 -14.972656 10.75 -15.734375 11.3125 -16.390625 C 11.882812 -17.054688 12.585938 -17.5 13.421875 -17.71875 C 13.066406 -18 12.585938 -18.140625 11.984375 -18.140625 C 10.453125 -18.140625 9.375 -17.316406 8.75 -15.671875 C 8.125 -14.035156 7.8125 -12.085938 7.8125 -9.828125 C 7.8125 -7.523438 8.242188 -5.878906 9.109375 -4.890625 C 9.972656 -3.910156 11.039062 -3.421875 12.3125 -3.421875 C 14.0625 -3.421875 15.515625 -4.222656 16.671875 -5.828125 L 17.28125 -5.609375 C 16.75 -3.929688 15.851562 -2.492188 14.59375 -1.296875 C 13.332031 -0.0976562 11.71875 0.5 9.75 0.5 C 7.132812 0.5 5.035156 -0.273438 3.453125 -1.828125 C 1.867188 -3.390625 1.078125 -5.890625 1.078125 -9.328125 C 1.078125 -12.609375 1.921875 -15.070312 3.609375 -16.71875 C 5.304688 -18.363281 7.546875 -19.1875 10.328125 -19.1875 Z M 10.328125 -19.1875 "/></g></g></g><g fill="#000000" fill-opacity="1"><g transform="translate(160.433061, 201.374987)"><g><path d="M 5.796875 -28.15625 C 7.046875 -28.15625 8.007812 -27.890625 8.6875 -27.359375 C 9.375 -26.828125 9.71875 -26.0625 9.71875 -25.0625 C 9.71875 -24.050781 9.375 -23.28125 8.6875 -22.75 C 8.007812 -22.21875 7.046875 -21.953125 5.796875 -21.953125 C 4.523438 -21.953125 3.550781 -22.21875 2.875 -22.75 C 2.207031 -23.28125 1.875 -24.050781 1.875 -25.0625 C 1.875 -26.0625 2.207031 -26.828125 2.875 -27.359375 C 3.550781 -27.890625 4.523438 -28.15625 5.796875 -28.15625 Z M 9.25 -3.34375 C 9.25 -2.363281 9.398438 -1.6875 9.703125 -1.3125 C 10.003906 -0.9375 10.523438 -0.75 11.265625 -0.75 L 11.265625 0 C 8.671875 -0.09375 6.96875 -0.140625 6.15625 -0.140625 C 5.34375 -0.140625 3.539062 -0.09375 0.75 0 L 0.75 -0.75 C 1.5 -0.75 2.019531 -0.9375 2.3125 -1.3125 C 2.613281 -1.6875 2.765625 -2.363281 2.765625 -3.34375 L 2.765625 -14.765625 C 2.765625 -15.867188 2.613281 -16.671875 2.3125 -17.171875 C 2.019531 -17.671875 1.5 -17.921875 0.75 -17.921875 L 0.75 -18.6875 C 1.519531 -18.613281 2.265625 -18.578125 2.984375 -18.578125 C 5.484375 -18.578125 7.570312 -18.742188 9.25 -19.078125 Z M 9.25 -3.34375 "/></g></g></g><g fill="#000000" fill-opacity="1"><g transform="translate(172.31308, 201.374987)"><g><path d="M 10.375 -19.1875 C 13.320312 -19.1875 15.597656 -18.410156 17.203125 -16.859375 C 18.816406 -15.316406 19.625 -12.804688 19.625 -9.328125 C 19.625 -5.847656 18.816406 -3.335938 17.203125 -1.796875 C 15.597656 -0.265625 13.320312 0.5 10.375 0.5 C 7.414062 0.5 5.128906 -0.265625 3.515625 -1.796875 C 1.910156 -3.335938 1.109375 -5.847656 1.109375 -9.328125 C 1.109375 -12.804688 1.910156 -15.316406 3.515625 -16.859375 C 5.128906 -18.410156 7.414062 -19.1875 10.375 -19.1875 Z M 10.375 -18.46875 C 9.601562 -18.46875 8.988281 -17.710938 8.53125 -16.203125 C 8.070312 -14.691406 7.84375 -12.398438 7.84375 -9.328125 C 7.84375 -6.253906 8.070312 -3.96875 8.53125 -2.46875 C 8.988281 -0.96875 9.601562 -0.21875 10.375 -0.21875 C 11.132812 -0.21875 11.742188 -0.96875 12.203125 -2.46875 C 12.660156 -3.96875 12.890625 -6.253906 12.890625 -9.328125 C 12.890625 -12.398438 12.660156 -14.691406 12.203125 -16.203125 C 11.742188 -17.710938 11.132812 -18.46875 10.375 -18.46875 Z M 10.375 -18.46875 "/></g></g></g><g fill="#000000" fill-opacity="1"><g transform="translate(194.566398, 201.374987)"><g><path d="M 19.265625 -7.5625 C 19.097656 -7.101562 18.796875 -6.117188 18.359375 -4.609375 C 17.972656 -3.265625 17.648438 -1.726562 17.390625 0 C 15.753906 -0.0703125 13.003906 -0.109375 9.140625 -0.109375 C 4.535156 -0.109375 1.066406 -0.0703125 -1.265625 0 L -1.078125 -0.71875 C -0.210938 -0.769531 0.425781 -0.863281 0.84375 -1 C 1.257812 -1.144531 1.597656 -1.421875 1.859375 -1.828125 C 2.128906 -2.242188 2.382812 -2.90625 2.625 -3.8125 L 7.421875 -21.671875 C 7.628906 -22.441406 7.734375 -23.03125 7.734375 -23.4375 C 7.734375 -23.9375 7.5625 -24.269531 7.21875 -24.4375 C 6.875 -24.613281 6.242188 -24.722656 5.328125 -24.765625 L 5.515625 -25.484375 C 6.515625 -25.410156 8.046875 -25.375 10.109375 -25.375 C 12.054688 -25.375 13.582031 -25.410156 14.6875 -25.484375 L 14.515625 -24.765625 C 13.617188 -24.722656 12.960938 -24.628906 12.546875 -24.484375 C 12.128906 -24.335938 11.785156 -24.0625 11.515625 -23.65625 C 11.253906 -23.25 11.003906 -22.585938 10.765625 -21.671875 L 5.96875 -3.8125 C 5.757812 -3.070312 5.65625 -2.484375 5.65625 -2.046875 C 5.65625 -1.546875 5.832031 -1.21875 6.1875 -1.0625 C 6.550781 -0.90625 7.1875 -0.828125 8.09375 -0.828125 L 10.734375 -0.828125 C 12.210938 -0.828125 13.398438 -1.035156 14.296875 -1.453125 C 15.203125 -1.878906 15.953125 -2.554688 16.546875 -3.484375 C 17.148438 -4.421875 17.78125 -5.78125 18.4375 -7.5625 Z M 19.265625 -7.5625 "/></g></g></g><g fill="#000000" fill-opacity="1"><g transform="translate(215.662436, 201.374987)"><g><path d="M 16.375 -5.875 L 17.0625 -5.875 L 16.15625 -3.234375 C 15.675781 -1.921875 15.066406 -0.96875 14.328125 -0.375 C 13.585938 0.207031 12.820312 0.5 12.03125 0.5 C 11.570312 0.5 11.171875 0.414062 10.828125 0.25 C 10.492188 0.0820312 10.234375 -0.144531 10.046875 -0.4375 C 9.828125 -0.789062 9.71875 -1.207031 9.71875 -1.6875 C 9.71875 -2.195312 9.800781 -2.757812 9.96875 -3.375 C 10.132812 -4 10.242188 -4.398438 10.296875 -4.578125 L 10.9375 -7.15625 C 9.789062 -4.46875 8.625 -2.519531 7.4375 -1.3125 C 6.25 -0.101562 5.003906 0.5 3.703125 0.5 C 2.597656 0.5 1.757812 0.101562 1.1875 -0.6875 C 0.613281 -1.476562 0.328125 -2.535156 0.328125 -3.859375 C 0.328125 -5.796875 0.84375 -7.960938 1.875 -10.359375 C 2.90625 -12.765625 4.25 -14.804688 5.90625 -16.484375 C 7.5625 -18.171875 9.238281 -19.015625 10.9375 -19.015625 C 11.59375 -19.015625 12.125 -18.769531 12.53125 -18.28125 C 12.9375 -17.800781 13.175781 -17.128906 13.25 -16.265625 L 13.828125 -18.5 C 15.140625 -18.550781 16.242188 -18.722656 17.140625 -19.015625 L 12.640625 -3.09375 C 12.609375 -3 12.554688 -2.8125 12.484375 -2.53125 C 12.421875 -2.257812 12.390625 -2.003906 12.390625 -1.765625 C 12.390625 -1.160156 12.648438 -0.859375 13.171875 -0.859375 C 14.234375 -0.859375 15.160156 -2.082031 15.953125 -4.53125 Z M 4.75 -0.640625 C 5.425781 -0.640625 6.226562 -1.15625 7.15625 -2.1875 C 8.09375 -3.226562 9.007812 -4.601562 9.90625 -6.3125 C 10.8125 -8.03125 11.550781 -9.863281 12.125 -11.8125 L 12.78125 -14.359375 C 12.800781 -14.554688 12.8125 -14.820312 12.8125 -15.15625 C 12.8125 -16.132812 12.632812 -16.90625 12.28125 -17.46875 C 11.9375 -18.039062 11.457031 -18.328125 10.84375 -18.328125 C 9.800781 -18.328125 8.703125 -17.523438 7.546875 -15.921875 C 6.398438 -14.328125 5.4375 -12.359375 4.65625 -10.015625 C 3.875 -7.679688 3.484375 -5.484375 3.484375 -3.421875 C 3.484375 -2.429688 3.59375 -1.71875 3.8125 -1.28125 C 4.03125 -0.851562 4.34375 -0.640625 4.75 -0.640625 Z M 4.75 -0.640625 "/></g></g></g><g fill="#000000" fill-opacity="1"><g transform="translate(234.490472, 201.374987)"><g><path d="M 14.71875 -19.015625 C 15.894531 -19.015625 16.8125 -18.585938 17.46875 -17.734375 C 18.132812 -16.878906 18.46875 -15.613281 18.46875 -13.9375 C 18.46875 -11.988281 18.035156 -9.878906 17.171875 -7.609375 C 16.304688 -5.347656 15.066406 -3.429688 13.453125 -1.859375 C 11.847656 -0.285156 10.003906 0.5 7.921875 0.5 C 7.273438 0.5 6.6875 0.316406 6.15625 -0.046875 C 5.625 -0.421875 5.238281 -0.929688 5 -1.578125 L 3.640625 3.171875 C 3.535156 3.453125 3.484375 3.738281 3.484375 4.03125 C 3.484375 4.65625 3.75 5.097656 4.28125 5.359375 C 4.8125 5.628906 5.566406 5.765625 6.546875 5.765625 L 6.34375 6.515625 L 5.578125 6.484375 C 3.492188 6.410156 2.140625 6.375 1.515625 6.375 C 0.867188 6.375 -0.460938 6.421875 -2.484375 6.515625 L -2.265625 5.765625 C -1.398438 5.765625 -0.773438 5.609375 -0.390625 5.296875 C -0.00390625 4.984375 0.304688 4.394531 0.546875 3.53125 L 7.265625 -20.484375 C 6.546875 -18.878906 5.707031 -17.460938 4.75 -16.234375 C 3.789062 -15.015625 2.601562 -13.734375 1.1875 -12.390625 L 0.796875 -12.859375 C 1.921875 -13.960938 2.859375 -14.941406 3.609375 -15.796875 C 4.367188 -16.660156 5.125 -17.710938 5.875 -18.953125 C 6.632812 -20.191406 7.390625 -21.710938 8.140625 -23.515625 L 8.28125 -24.015625 C 9.570312 -24.054688 10.664062 -24.222656 11.5625 -24.515625 L 7.8125 -11.40625 C 8.9375 -14.070312 10.054688 -16.003906 11.171875 -17.203125 C 12.296875 -18.410156 13.476562 -19.015625 14.71875 -19.015625 Z M 7.890625 -0.328125 C 9.160156 -0.328125 10.367188 -1.125 11.515625 -2.71875 C 12.671875 -4.3125 13.601562 -6.25 14.3125 -8.53125 C 15.019531 -10.8125 15.375 -12.875 15.375 -14.71875 C 15.375 -15.75 15.222656 -16.53125 14.921875 -17.0625 C 14.617188 -17.59375 14.207031 -17.859375 13.6875 -17.859375 C 13.007812 -17.859375 12.21875 -17.3125 11.3125 -16.21875 C 10.414062 -15.125 9.507812 -13.648438 8.59375 -11.796875 C 7.6875 -9.953125 6.882812 -7.941406 6.1875 -5.765625 L 5.25 -2.484375 C 5.539062 -1.710938 5.898438 -1.160156 6.328125 -0.828125 C 6.765625 -0.492188 7.285156 -0.328125 7.890625 -0.328125 Z M 7.890625 -0.328125 "/></g></g></g><g fill="#000000" fill-opacity="1"><g transform="translate(254.326515, 201.374987)"><g><path d="M 17.5 -5.828125 L 16.59375 -3.203125 C 15.726562 -0.734375 14.273438 0.5 12.234375 0.5 C 10.554688 0.5 9.71875 -0.242188 9.71875 -1.734375 C 9.71875 -2.453125 9.910156 -3.382812 10.296875 -4.53125 L 13.71875 -14.828125 C 13.957031 -15.503906 14.078125 -16.101562 14.078125 -16.625 C 14.078125 -17.445312 13.691406 -17.859375 12.921875 -17.859375 C 12.035156 -17.859375 11.082031 -17.300781 10.0625 -16.1875 C 9.039062 -15.070312 8.015625 -13.503906 6.984375 -11.484375 C 5.953125 -9.460938 4.992188 -7.125 4.109375 -4.46875 L 2.8125 0 L -0.328125 0 L 6.796875 -24.015625 C 6.921875 -24.421875 6.984375 -24.742188 6.984375 -24.984375 C 6.984375 -25.460938 6.789062 -25.816406 6.40625 -26.046875 C 6.019531 -26.273438 5.382812 -26.390625 4.5 -26.390625 L 4.71875 -27.140625 C 7.207031 -27.171875 9.367188 -27.664062 11.203125 -28.625 L 5.96875 -10.765625 C 7.269531 -13.691406 8.566406 -15.796875 9.859375 -17.078125 C 11.160156 -18.367188 12.578125 -19.015625 14.109375 -19.015625 C 16.054688 -19.015625 17.03125 -18.097656 17.03125 -16.265625 C 17.03125 -15.503906 16.847656 -14.609375 16.484375 -13.578125 L 13 -3.0625 C 12.800781 -2.488281 12.703125 -2.03125 12.703125 -1.6875 C 12.703125 -1.113281 12.992188 -0.828125 13.578125 -0.828125 C 14.054688 -0.828125 14.515625 -1.097656 14.953125 -1.640625 C 15.398438 -2.179688 15.863281 -3.132812 16.34375 -4.5 L 16.8125 -5.828125 Z M 17.5 -5.828125 "/></g></g></g><g fill="#000000" fill-opacity="1"><g transform="translate(273.622557, 201.374987)"><g><path d="M 6.765625 -24.59375 C 6.765625 -25.3125 7.035156 -25.953125 7.578125 -26.515625 C 8.117188 -27.078125 8.738281 -27.359375 9.4375 -27.359375 C 9.988281 -27.359375 10.429688 -27.175781 10.765625 -26.8125 C 11.097656 -26.457031 11.265625 -26.015625 11.265625 -25.484375 C 11.265625 -24.765625 10.988281 -24.128906 10.4375 -23.578125 C 9.882812 -23.023438 9.257812 -22.75 8.5625 -22.75 C 8.039062 -22.75 7.609375 -22.921875 7.265625 -23.265625 C 6.929688 -23.617188 6.765625 -24.0625 6.765625 -24.59375 Z M 5.6875 -15.4375 C 5.875 -16.019531 5.96875 -16.46875 5.96875 -16.78125 C 5.96875 -17.375 5.707031 -17.671875 5.1875 -17.671875 C 4.632812 -17.671875 4.140625 -17.382812 3.703125 -16.8125 C 3.273438 -16.238281 2.820312 -15.300781 2.34375 -14 L 1.84375 -12.671875 L 1.15625 -12.671875 L 2.09375 -15.296875 C 2.570312 -16.671875 3.210938 -17.632812 4.015625 -18.1875 C 4.816406 -18.738281 5.660156 -19.015625 6.546875 -19.015625 C 8.128906 -19.015625 8.921875 -18.253906 8.921875 -16.734375 C 8.921875 -15.941406 8.734375 -15.019531 8.359375 -13.96875 L 4.5 -3.0625 C 4.3125 -2.488281 4.21875 -2.046875 4.21875 -1.734375 C 4.21875 -1.128906 4.503906 -0.828125 5.078125 -0.828125 C 5.578125 -0.828125 6.039062 -1.101562 6.46875 -1.65625 C 6.90625 -2.207031 7.378906 -3.15625 7.890625 -4.5 L 8.390625 -5.828125 L 9.078125 -5.828125 L 8.140625 -3.203125 C 7.660156 -1.878906 7.03125 -0.929688 6.25 -0.359375 C 5.46875 0.210938 4.617188 0.5 3.703125 0.5 C 2.023438 0.5 1.1875 -0.226562 1.1875 -1.6875 C 1.1875 -2.382812 1.40625 -3.332031 1.84375 -4.53125 Z M 5.6875 -15.4375 "/></g></g></g><g fill="#000000" fill-opacity="1"><g transform="translate(284.494581, 201.374987)"><g><path d="M 4.359375 -3.0625 C 4.285156 -2.769531 4.25 -2.503906 4.25 -2.265625 C 4.25 -1.785156 4.390625 -1.425781 4.671875 -1.1875 C 4.960938 -0.945312 5.335938 -0.828125 5.796875 -0.828125 C 6.398438 -0.828125 6.957031 -1.082031 7.46875 -1.59375 C 7.988281 -2.113281 8.5 -3.054688 9 -4.421875 L 9.5 -5.828125 L 10.1875 -5.828125 L 9.4375 -3.5625 C 8.925781 -2.070312 8.269531 -1.019531 7.46875 -0.40625 C 6.664062 0.195312 5.675781 0.5 4.5 0.5 C 3.414062 0.5 2.609375 0.238281 2.078125 -0.28125 C 1.554688 -0.8125 1.296875 -1.546875 1.296875 -2.484375 C 1.296875 -3.109375 1.40625 -3.789062 1.625 -4.53125 L 5.4375 -17.78125 L 2.203125 -17.78125 L 2.375 -18.5 L 5.609375 -18.5 L 7.203125 -23.96875 C 8.492188 -24.019531 9.570312 -24.191406 10.4375 -24.484375 L 8.75 -18.5 L 13.5 -18.5 L 13.390625 -17.78125 L 8.53125 -17.78125 Z M 4.359375 -3.0625 "/></g></g></g><g fill="#000000" fill-opacity="1"><g transform="translate(296.590608, 201.374987)"><g><path d="M 0.90625 -1.40625 C 1.976562 -2.101562 2.84375 -2.585938 3.5 -2.859375 C 4.164062 -3.140625 4.820312 -3.28125 5.46875 -3.28125 C 5.851562 -3.28125 6.207031 -3.226562 6.53125 -3.125 C 6.851562 -3.03125 7.28125 -2.890625 7.8125 -2.703125 C 8.34375 -2.503906 8.789062 -2.359375 9.15625 -2.265625 C 9.53125 -2.171875 9.921875 -2.125 10.328125 -2.125 C 10.953125 -2.125 11.4375 -2.273438 11.78125 -2.578125 C 12.132812 -2.878906 12.3125 -3.328125 12.3125 -3.921875 C 12.3125 -4.546875 12.046875 -5.09375 11.515625 -5.5625 C 10.992188 -6.03125 10.3125 -6.347656 9.46875 -6.515625 L 9.6875 -7.0625 C 10.8125 -6.789062 11.671875 -6.367188 12.265625 -5.796875 C 12.867188 -5.222656 13.171875 -4.476562 13.171875 -3.5625 C 13.171875 -2.507812 12.828125 -1.613281 12.140625 -0.875 C 11.460938 -0.144531 10.414062 0.21875 9 0.21875 C 8.445312 0.21875 7.945312 0.148438 7.5 0.015625 C 7.0625 -0.117188 6.578125 -0.304688 6.046875 -0.546875 C 5.441406 -0.804688 4.90625 -1 4.4375 -1.125 C 3.976562 -1.257812 3.4375 -1.328125 2.8125 -1.328125 C 2.132812 -1.328125 1.539062 -1.226562 1.03125 -1.03125 C 0.53125 -0.84375 0.0390625 -0.5 -0.4375 0 L -1.40625 0 L 14.828125 -17.09375 C 13.753906 -16.40625 12.882812 -15.921875 12.21875 -15.640625 C 11.5625 -15.367188 10.910156 -15.234375 10.265625 -15.234375 C 9.878906 -15.234375 9.523438 -15.28125 9.203125 -15.375 C 8.878906 -15.46875 8.453125 -15.609375 7.921875 -15.796875 C 7.390625 -15.992188 6.9375 -16.140625 6.5625 -16.234375 C 6.195312 -16.328125 5.8125 -16.375 5.40625 -16.375 C 4.78125 -16.375 4.289062 -16.222656 3.9375 -15.921875 C 3.59375 -15.628906 3.421875 -15.179688 3.421875 -14.578125 C 3.421875 -13.953125 3.679688 -13.40625 4.203125 -12.9375 C 4.734375 -12.46875 5.421875 -12.148438 6.265625 -11.984375 L 6.046875 -11.453125 C 4.921875 -11.710938 4.054688 -12.128906 3.453125 -12.703125 C 2.859375 -13.285156 2.5625 -14.03125 2.5625 -14.9375 C 2.5625 -16 2.898438 -16.894531 3.578125 -17.625 C 4.265625 -18.351562 5.316406 -18.71875 6.734375 -18.71875 C 7.285156 -18.71875 7.78125 -18.648438 8.21875 -18.515625 C 8.664062 -18.390625 9.15625 -18.207031 9.6875 -17.96875 C 10.28125 -17.695312 10.8125 -17.492188 11.28125 -17.359375 C 11.75 -17.234375 12.296875 -17.171875 12.921875 -17.171875 C 13.597656 -17.171875 14.1875 -17.265625 14.6875 -17.453125 C 15.1875 -17.648438 15.675781 -18 16.15625 -18.5 L 17.140625 -18.5 Z M 0.90625 -1.40625 "/></g></g></g></svg>